{
    "accessors" : [
        {
            "bufferView" : 0,
            "componentType" : 5126,
            "count" : 3997,
            "max" : [
                1.2878612279891968,
                0.009999999776482582,
                0.23843932151794434
            ],
            "min" : [
                -1.2838152647018433,
                -0.009999999776482582,
                -0.2673409879207611
            ],
            "type" : "VEC3"
        },
        {
            "bufferView" : 1,
            "componentType" : 5126,
            "count" : 3997,
            "type" : "VEC3"
        },
        {
            "bufferView" : 2,
            "componentType" : 5123,
            "count" : 10296,
            "type" : "SCALAR"
        }
    ],
    "asset" : {
        "generator" : "Khronos Blender glTF 2.0 I/O",
        "version" : "2.0"
    },
    "bufferViews" : [
        {
            "buffer" : 0,
            "byteLength" : 47964,
            "byteOffset" : 0
        },
        {
            "buffer" : 0,
            "byteLength" : 47964,
            "byteOffset" : 47964
        },
        {
            "buffer" : 0,
            "byteLength" : 20592,
            "byteOffset" : 95928
        }
    ],
    "buffers" : [
        {
            "byteLength" : 116520,
            "uri" : "data:application/octet-stream;base64,"
        }
    ],
    "extensions" : {},
    "materials" : [
        {
            "name" : "White",
            "pbrMetallicRoughness" : {
                "baseColorFactor" : [
                    1,
                    1,
                    1,
                    1
                ],
                "metallicFactor" : 0,
                "roughnessFactor" : 0.5
            }
        }
    ],
    "meshes" : [
        {
            "name" : "CUText.001",
            "primitives" : [
                {
                    "attributes" : {
                        "NORMAL" : 1,
                        "POSITION" : 0
                    },
                    "indices" : 2,
                    "material" : 0
                }
            ]
        }
    ],
    "nodes" : [
        {
            "mesh" : 0,
            "name" : "Text"
        }
    ],
    "scene" : 0,
    "scenes" : [
        {
            "name" : "Scene",
            "nodes" : [
                0
            ]
        }
    ]
}
