{
    "accessors" : [
        {
            "bufferView" : 0,
            "componentType" : 5126,
            "count" : 2171,
            "max" : [
                2.3245668411254883,
                0.004511184990406036,
                0.7384393215179443
            ],
            "min" : [
                -2.3228325843811035,
                -0.004511184990406036,
                -0.7627167701721191
            ],
            "type" : "VEC3"
        },
        {
            "bufferView" : 1,
            "componentType" : 5126,
            "count" : 2171,
            "type" : "VEC3"
        },
        {
            "bufferView" : 2,
            "componentType" : 5123,
            "count" : 5496,
            "type" : "SCALAR"
        }
    ],
    "asset" : {
        "generator" : "Khronos Blender glTF 2.0 I/O",
        "version" : "2.0"
    },
    "bufferViews" : [
        {
            "buffer" : 0,
            "byteLength" : 26052,
            "byteOffset" : 0
        },
        {
            "buffer" : 0,
            "byteLength" : 26052,
            "byteOffset" : 26052
        },
        {
            "buffer" : 0,
            "byteLength" : 10992,
            "byteOffset" : 52104
        }
    ],
    "buffers" : [
        {
            "byteLength" : 63096,
            "uri" : "data:application/octet-stream;base64,"
        }
    ],
    "extensions" : {},
    "materials" : [
        {
            "name" : "Red",
            "pbrMetallicRoughness" : {
                "baseColorFactor" : [
                    0.8000000715255737,
                    0,
                    0.003246727166697383,
                    1
                ],
                "metallicFactor" : 0,
                "roughnessFactor" : 0.5
            }
        }
    ],
    "meshes" : [
        {
            "name" : "CUText",
            "primitives" : [
                {
                    "attributes" : {
                        "NORMAL" : 1,
                        "POSITION" : 0
                    },
                    "indices" : 2,
                    "material" : 0
                }
            ]
        }
    ],
    "nodes" : [
        {
            "mesh" : 0,
            "name" : "Text"
        }
    ],
    "scene" : 0,
    "scenes" : [
        {
            "name" : "Scene",
            "nodes" : [
                0
            ]
        }
    ]
}
